<svg width="512" height="512" viewBox="0 0 512 512" fill="none" xmlns="http://www.w3.org/2000/svg">
<path d="M511.499 150.529C510.3 123.325 505.9 104.622 499.598 88.4157C493.097 71.2131 483.095 55.8117 469.991 43.0084C457.188 30.0059 441.685 19.9023 424.681 13.5026C408.381 7.20062 389.776 2.80132 362.572 1.60187C335.164 0.300832 326.463 -7.62939e-06 256.949 -7.62939e-06C187.436 -7.62939e-06 178.735 0.300832 151.429 1.50029C124.224 2.69974 105.521 7.10294 89.3189 13.401C72.1124 19.9023 56.711 29.9043 43.9077 43.0084C30.9052 55.8117 20.8055 71.3147 14.4019 88.318C8.09993 104.622 3.70063 123.223 2.50117 150.428C1.20014 177.836 0.8993 186.536 0.8993 256.05C0.8993 325.564 1.20014 334.265 2.39959 361.571C3.59905 388.775 8.00225 407.478 14.3043 423.684C20.8055 440.887 30.9052 456.288 43.9077 469.092C56.711 482.094 72.214 492.198 89.2173 498.597C105.521 504.899 124.123 509.299 151.331 510.498C178.633 511.702 187.338 511.998 256.852 511.998C326.365 511.998 335.066 511.702 362.372 510.498C389.577 509.299 408.28 504.899 424.482 498.597C458.891 485.294 486.096 458.089 499.399 423.684C505.697 407.38 510.1 388.775 511.3 361.571C512.499 334.265 512.8 325.564 512.8 256.05C512.8 186.536 512.698 177.836 511.499 150.529ZM465.392 359.57C464.291 384.575 460.091 398.078 456.59 407.08C447.987 429.385 430.284 447.087 407.979 455.691C398.977 459.191 385.377 463.391 360.47 464.489C333.464 465.693 325.365 465.989 257.051 465.989C188.737 465.989 180.536 465.693 153.628 464.489C128.623 463.391 115.121 459.191 106.119 455.691C95.0192 451.588 84.9157 445.087 76.7149 436.585C68.2132 428.283 61.712 418.281 57.6096 407.181C54.1089 398.179 49.9089 384.575 48.811 359.672C47.6076 332.667 47.3107 324.563 47.3107 256.249C47.3107 187.935 47.6076 179.734 48.811 152.831C49.9089 127.826 54.1089 114.323 57.6096 105.321C61.712 94.2176 68.2132 84.118 76.8165 75.9133C85.115 67.4116 95.1169 60.9103 106.221 56.8119C115.222 53.3112 128.827 49.1111 153.73 48.0094C180.735 46.8099 188.838 46.5091 257.149 46.5091C325.564 46.5091 333.664 46.8099 360.571 48.0094C385.576 49.1111 399.079 53.3112 408.08 56.8119C419.18 60.9103 429.284 67.4116 437.485 75.9133C445.986 84.2157 452.488 94.2176 456.59 105.321C460.091 114.323 464.291 127.923 465.392 152.831C466.592 179.836 466.893 187.935 466.893 256.249C466.893 324.563 466.592 332.565 465.392 359.57Z" fill="#925028"/>
<path d="M256.949 124.524C184.338 124.524 125.424 183.434 125.424 256.05C125.424 328.666 184.338 387.576 256.949 387.576C329.565 387.576 388.475 328.666 388.475 256.05C388.475 183.434 329.565 124.524 256.949 124.524ZM256.949 341.367C209.843 341.367 171.632 303.161 171.632 256.05C171.632 208.939 209.843 170.733 256.949 170.733C304.06 170.733 342.267 208.939 342.267 256.05C342.267 303.161 304.06 341.367 256.949 341.367V341.367Z" fill="#925028"/>
<path d="M424.384 119.324C424.384 136.281 410.636 150.029 393.675 150.029C376.719 150.029 362.97 136.281 362.97 119.324C362.97 102.364 376.719 88.6189 393.675 88.6189C410.636 88.6189 424.384 102.364 424.384 119.324V119.324Z" fill="#925028"/>
</svg>
